<svg width="70" height="70" viewBox="0 0 70 70" fill="none" xmlns="http://www.w3.org/2000/svg">
<g clip-path="url(#clip0_30_155)">
<circle cx="35" cy="35" r="35" fill="#FFCE50"/>
<path fill-rule="evenodd" clip-rule="evenodd" d="M26.4193 35.9769C26.4193 40.3634 22.8612 43.9193 18.4721 43.9193L10.2911 43.9193L10.2911 31.1899L5.19351 24.8218L8.84394 21.9032L13.752 28.0345L18.4721 28.0345C22.8612 28.0345 26.4193 31.5904 26.4193 35.9769ZM14.9659 32.7065L14.9659 39.2473L18.4721 39.2473C20.2794 39.2473 21.7445 37.7831 21.7445 35.9769C21.7445 34.1707 20.2794 32.7065 18.4721 32.7065L14.9659 32.7065Z" fill="black"/>
<path fill-rule="evenodd" clip-rule="evenodd" d="M65.9233 35.6774L58.7304 34.1091L57.918 31.3606C59.6488 29.5995 60.7039 28.446 61.2469 27.4952C61.4994 27.0531 61.5936 26.7312 61.6158 26.4787C61.6368 26.2391 61.6021 25.9618 61.4389 25.5882C61.1776 24.99 60.5628 24.5564 59.8802 24.5029C59.284 24.4563 58.5177 24.6977 57.9159 25.7474L55.0968 24.1135C56.2932 22.0266 58.2242 21.0918 60.1327 21.2412C61.9548 21.3838 63.6519 22.5184 64.4182 24.2726C64.7688 25.0752 64.9329 25.9026 64.8571 26.7661C64.7825 27.6168 64.4844 28.3965 64.0687 29.1244C63.6283 29.8955 63.0055 30.6885 62.255 31.5299L66.6129 32.48L65.9233 35.6774Z" fill="black"/>
<path fill-rule="evenodd" clip-rule="evenodd" d="M40.4953 28H31.8511L27.2131 43.8666H32.0751L35.349 32.6667L38.8911 32.6667L40.4953 28Z" fill="black"/>
<path fill-rule="evenodd" clip-rule="evenodd" d="M48.5484 39.2371C50.3457 39.2371 51.8027 37.7698 51.8027 35.9596C51.8027 34.1495 50.3457 32.6821 48.5484 32.6821C46.7512 32.6821 45.2942 34.1495 45.2942 35.9596C45.2942 37.7698 46.7512 39.2371 48.5484 39.2371ZM56.4517 35.9596C56.4517 40.3556 52.9133 43.9193 48.5484 43.9193C44.1836 43.9193 40.6452 40.3556 40.6452 35.9596C40.6452 31.5636 44.1836 28 48.5484 28C52.9133 28 56.4517 31.5636 56.4517 35.9596Z" fill="black"/>
</g>
<defs>
<clipPath id="clip0_30_155">
<rect width="70" height="70" fill="white"/>
</clipPath>
</defs>
</svg>
